# MagicaVoxel @ Ephtracy

# group
o 

# material
mtllib Part10.mtl
usemtl palette

# normals
vn -1 0 0
vn 1 0 0
vn 0 0 1
vn 0 0 -1
vn 0 -1 0
vn 0 1 0

# texcoords
vt 0.208984 0.5
vt 0.373047 0.5

# verts
v -9 0 12.8
v -9 0 -12.8
v -9 4.1 12.8
v -9 4.1 -12.8
v 6 2.1 12.8
v 6 2.1 11.3
v 6 2.1 10.7
v 6 2.1 2.5
v 6 2.1 1.6
v 6 2.1 -4
v 6 2.1 -10.1
v 6 2.1 -10.5
v 6 2.1 -12.8
v 6 2.5 -7.8
v 6 2.5 -8.8
v 6 2.7 -8.8
v 6 2.7 -9.3
v 6 2.8 -5.1
v 6 2.8 -6
v 6 2.8 -7.8
v 6 2.8 -8.1
v 6 2.9 11.3
v 6 2.9 7.9
v 6 2.9 5.2
v 6 2.9 2.5
v 6 3.1 -5.1
v 6 3.1 -6
v 6 3.1 -8.1
v 6 3.1 -9.3
v 6 3.3 7.9
v 6 3.3 5.2
v 6 3.4 -4
v 6 3.4 -10.1
v 6 4.1 12.8
v 6 4.1 -12.8
v -6 2.1 12.8
v -6 2.1 11.7
v -6 2.1 5.5
v -6 2.1 2
v -6 2.1 -3.2
v -6 2.1 -8.7
v -6 2.1 -12
v -6 2.1 -12.5
v -6 2.1 -12.8
v -6 2.4 2
v -6 2.4 0.700001
v -6 2.4 -2.8
v -6 2.4 -3.2
v -6 2.7 11.7
v -6 2.7 9.5
v -6 2.7 5.9
v -6 2.7 5.5
v -6 2.8 0.700001
v -6 2.8 -2.8
v -6 3.1 -8.7
v -6 3.1 -11.1
v -6 3.1 -12.3
v -6 3.1 -12.5
v -6 3.5 9.5
v -6 3.5 5.9
v -6 3.9 -11.1
v -6 3.9 -12.3
v -6 4.1 12.8
v -6 4.1 -12.8
v 9 0 12.8
v 9 0 -12.8
v 9 4.1 12.8
v 9 4.1 -12.8
v -9 0 12.8
v -9 4.1 12.8
v -6 2.1 12.8
v -6 4.1 12.8
v 6 2.1 12.8
v 6 4.1 12.8
v 9 0 12.8
v 9 4.1 12.8
v -9 0 -12.8
v -9 4.1 -12.8
v -6 2.1 -12.8
v -6 4.1 -12.8
v 6 2.1 -12.8
v 6 4.1 -12.8
v 9 0 -12.8
v 9 4.1 -12.8
v -9 0 12.8
v 9 0 12.8
v -9 0 -12.8
v 9 0 -12.8
v -6 2.1 12.8
v 6 2.1 12.8
v 0.0999994 2.1 11.9
v 0.9 2.1 11.9
v -6 2.1 11.7
v -2.1 2.1 11.7
v 6 2.1 11.3
v -5.7 2.1 11.2
v -5.1 2.1 11.2
v 0.0999994 2.1 10.7
v 0.9 2.1 10.7
v 4 2.1 10.7
v 6 2.1 10.7
v -5.7 2.1 10
v -5.1 2.1 10
v -3.6 2.1 8.7
v -2.8 2.1 8.7
v 2 2.1 8
v 4 2.1 8
v -2.1 2.1 7.9
v -0.7 2.1 7.9
v -3.6 2.1 7.2
v -2.8 2.1 7.2
v 4 2.1 7
v 4.8 2.1 7
v -1.4 2.1 6.2
v -1.1 2.1 6.2
v -1.4 2.1 5.9
v -1.1 2.1 5.9
v -6 2.1 5.5
v -2.2 2.1 5.5
v -2.2 2.1 5.2
v -0.7 2.1 5.2
v 4 2.1 4.9
v 4.8 2.1 4.9
v 2 2.1 3.6
v 4 2.1 3.6
v -2.7 2.1 3
v -0.5 2.1 3
v 5.3 2.1 2.9
v 5.6 2.1 2.9
v 6 2.1 2.5
v 3 2.1 2.4
v 4 2.1 2.4
v 5.3 2.1 2.3
v 5.6 2.1 2.3
v -6 2.1 2
v -2.7 2.1 2
v 4.6 2.1 1.6
v 6 2.1 1.6
v 3 2.1 1.2
v 4.6 2.1 1.2
v -2.6 2.1 0
v -0.5 2.1 0
v -4.1 2.1 -0.4
v -3.6 2.1 -0.4
v -4.1 2.1 -1.2
v -3.6 2.1 -1.2
v 2.9 2.1 -1.5
v 3.5 2.1 -1.5
v -0.3 2.1 -1.7
v 0.7 2.1 -1.7
v -3.5 2.1 -1.9
v -2.8 2.1 -1.9
v 2.3 2.1 -1.9
v 2.9 2.1 -1.9
v 3.2 2.1 -2
v 3.5 2.1 -2
v 0.7 2.1 -2.4
v 2.3 2.1 -2.4
v -3.5 2.1 -2.6
v -2.8 2.1 -2.6
v -0.3 2.1 -2.7
v 0.2 2.1 -2.7
v 2.4 2.1 -2.9
v 3.2 2.1 -2.9
v -6 2.1 -3.2
v -2.6 2.1 -3.2
v 5.2 2.1 -4
v 6 2.1 -4
v 0.2 2.1 -4.1
v 2.4 2.1 -4.1
v -0.2 2.1 -5.2
v 2.2 2.1 -5.2
v 2.2 2.1 -6
v 5.2 2.1 -6
v -3.6 2.1 -6.7
v -2.6 2.1 -6.7
v 3.9 2.1 -7.3
v 4.6 2.1 -7.3
v -3 2.1 -7.6
v -2.8 2.1 -7.6
v 3 2.1 -7.6
v 3.9 2.1 -7.6
v -3 2.1 -7.8
v -2.8 2.1 -7.8
v -0.2 2.1 -7.9
v 2.1 2.1 -7.9
v -3.6 2.1 -8
v -2.6 2.1 -8
v 4 2.1 -8.1
v 4.6 2.1 -8.1
v -6 2.1 -8.7
v -4.3 2.1 -8.7
v 3 2.1 -8.9
v 4 2.1 -8.9
v 6 2.1 -10.1
v 2.1 2.1 -10.5
v 6 2.1 -10.5
v -6 2.1 -12
v -4.3 2.1 -12
v -6 2.1 -12.5
v -6 2.1 -12.8
v 6 2.1 -12.8
v -9 4.1 12.8
v -6 4.1 12.8
v 6 4.1 12.8
v 9 4.1 12.8
v -9 4.1 -12.8
v -6 4.1 -12.8
v 6 4.1 -12.8
v 9 4.1 -12.8

# faces
f 3/2/1 2/2/1 1/2/1
f 4/2/1 2/2/1 3/2/1
f 14/1/1 11/1/1 10/1/1
f 15/1/1 11/1/1 14/1/1
f 16/2/1 15/2/1 14/2/1
f 16/1/1 11/1/1 15/1/1
f 17/1/1 11/1/1 16/1/1
f 18/1/1 14/1/1 10/1/1
f 19/1/1 14/1/1 18/1/1
f 20/2/1 16/2/1 14/2/1
f 20/1/1 14/1/1 19/1/1
f 20/2/1 17/2/1 16/2/1
f 21/2/1 17/2/1 20/2/1
f 22/2/1 6/2/1 5/2/1
f 22/1/1 7/1/1 6/1/1
f 22/1/1 8/1/1 7/1/1
f 23/1/1 8/1/1 22/1/1
f 24/1/1 8/1/1 23/1/1
f 25/2/1 9/2/1 8/2/1
f 25/1/1 8/1/1 24/1/1
f 25/2/1 10/2/1 9/2/1
f 26/2/1 19/2/1 18/2/1
f 26/1/1 18/1/1 10/1/1
f 27/1/1 21/1/1 20/1/1
f 27/2/1 19/2/1 26/2/1
f 27/1/1 20/1/1 19/1/1
f 28/2/1 17/2/1 21/2/1
f 28/1/1 21/1/1 27/1/1
f 29/1/1 11/1/1 17/1/1
f 29/2/1 17/2/1 28/2/1
f 30/1/1 24/1/1 23/1/1
f 30/2/1 23/2/1 22/2/1
f 31/2/1 25/2/1 24/2/1
f 31/1/1 24/1/1 30/1/1
f 32/1/1 27/1/1 26/1/1
f 32/2/1 25/2/1 31/2/1
f 32/2/1 31/2/1 30/2/1
f 32/1/1 26/1/1 10/1/1
f 32/2/1 10/2/1 25/2/1
f 32/1/1 28/1/1 27/1/1
f 32/1/1 29/1/1 28/1/1
f 33/2/1 12/2/1 11/2/1
f 33/1/1 29/1/1 32/1/1
f 33/1/1 11/1/1 29/1/1
f 33/2/1 13/2/1 12/2/1
f 34/2/1 30/2/1 22/2/1
f 34/2/1 32/2/1 30/2/1
f 34/2/1 33/2/1 32/2/1
f 34/2/1 22/2/1 5/2/1
f 35/2/1 13/2/1 33/2/1
f 35/2/1 33/2/1 34/2/1
f 38/2/2 39/2/2 45/2/2
f 39/1/2 40/1/2 45/1/2
f 45/1/2 40/1/2 46/1/2
f 46/1/2 40/1/2 47/1/2
f 40/2/2 41/2/2 48/2/2
f 47/1/2 40/1/2 48/1/2
f 36/2/2 37/2/2 49/2/2
f 37/1/2 38/1/2 49/1/2
f 49/1/2 38/1/2 50/1/2
f 50/1/2 38/1/2 51/1/2
f 38/2/2 45/2/2 52/2/2
f 51/1/2 38/1/2 52/1/2
f 45/2/2 46/2/2 52/2/2
f 46/1/2 47/1/2 53/1/2
f 52/2/2 46/2/2 53/2/2
f 51/2/2 52/2/2 53/2/2
f 47/2/2 48/2/2 54/2/2
f 53/1/2 47/1/2 54/1/2
f 48/2/2 41/2/2 55/2/2
f 54/2/2 48/2/2 55/2/2
f 53/2/2 54/2/2 55/2/2
f 42/1/2 43/1/2 55/1/2
f 41/1/2 42/1/2 55/1/2
f 55/1/2 43/1/2 56/1/2
f 56/1/2 43/1/2 57/1/2
f 43/2/2 44/2/2 58/2/2
f 57/1/2 43/1/2 58/1/2
f 49/2/2 50/2/2 59/2/2
f 50/1/2 51/1/2 59/1/2
f 51/2/2 53/2/2 60/2/2
f 59/1/2 51/1/2 60/1/2
f 53/2/2 55/2/2 60/2/2
f 55/2/2 56/2/2 60/2/2
f 56/1/2 57/1/2 61/1/2
f 60/2/2 56/2/2 61/2/2
f 59/2/2 60/2/2 61/2/2
f 57/2/2 58/2/2 62/2/2
f 61/1/2 57/1/2 62/1/2
f 49/2/2 59/2/2 63/2/2
f 36/2/2 49/2/2 63/2/2
f 61/2/2 62/2/2 63/2/2
f 59/2/2 61/2/2 63/2/2
f 58/2/2 44/2/2 64/2/2
f 63/2/2 62/2/2 64/2/2
f 62/2/2 58/2/2 64/2/2
f 65/2/2 66/2/2 67/2/2
f 67/2/2 66/2/2 68/2/2
f 71/2/3 70/2/3 69/2/3
f 72/2/3 70/2/3 71/2/3
f 73/2/3 71/2/3 69/2/3
f 75/2/3 73/2/3 69/2/3
f 75/2/3 74/2/3 73/2/3
f 76/2/3 74/2/3 75/2/3
f 77/2/4 78/2/4 79/2/4
f 79/2/4 78/2/4 80/2/4
f 77/2/4 79/2/4 81/2/4
f 77/2/4 81/2/4 83/2/4
f 81/2/4 82/2/4 83/2/4
f 83/2/4 82/2/4 84/2/4
f 87/2/5 86/2/5 85/2/5
f 88/2/5 86/2/5 87/2/5
f 89/2/6 90/2/6 91/2/6
f 91/2/6 90/2/6 92/2/6
f 89/2/6 91/2/6 93/2/6
f 93/2/6 91/2/6 94/2/6
f 92/2/6 90/2/6 95/2/6
f 93/1/6 94/1/6 96/1/6
f 96/1/6 94/1/6 97/1/6
f 94/2/6 91/2/6 98/2/6
f 91/1/6 92/1/6 98/1/6
f 92/2/6 95/2/6 99/2/6
f 98/1/6 92/1/6 99/1/6
f 99/2/6 95/2/6 100/2/6
f 100/2/6 95/2/6 101/2/6
f 96/2/6 97/2/6 102/2/6
f 93/1/6 96/1/6 102/1/6
f 97/1/6 94/1/6 103/1/6
f 102/2/6 97/2/6 103/2/6
f 102/1/6 103/1/6 104/1/6
f 103/1/6 94/1/6 104/1/6
f 104/1/6 94/1/6 105/1/6
f 98/2/6 99/2/6 106/2/6
f 99/2/6 100/2/6 106/2/6
f 100/1/6 101/1/6 107/1/6
f 106/2/6 100/2/6 107/2/6
f 94/2/6 98/2/6 108/2/6
f 98/2/6 106/2/6 108/2/6
f 105/1/6 94/1/6 108/1/6
f 108/2/6 106/2/6 109/2/6
f 102/1/6 104/1/6 110/1/6
f 104/2/6 105/2/6 110/2/6
f 108/1/6 109/1/6 111/1/6
f 110/2/6 105/2/6 111/2/6
f 105/1/6 108/1/6 111/1/6
f 107/1/6 101/1/6 112/1/6
f 106/1/6 107/1/6 112/1/6
f 112/1/6 101/1/6 113/1/6
f 111/1/6 109/1/6 114/1/6
f 110/1/6 111/1/6 114/1/6
f 114/1/6 109/1/6 115/1/6
f 110/1/6 114/1/6 116/1/6
f 114/2/6 115/2/6 116/2/6
f 115/1/6 109/1/6 117/1/6
f 116/2/6 115/2/6 117/2/6
f 93/1/6 102/1/6 118/1/6
f 102/1/6 110/1/6 118/1/6
f 116/1/6 117/1/6 118/1/6
f 110/1/6 116/1/6 118/1/6
f 118/1/6 117/1/6 119/1/6
f 118/2/6 119/2/6 120/2/6
f 119/1/6 117/1/6 120/1/6
f 117/1/6 109/1/6 121/1/6
f 120/1/6 117/1/6 121/1/6
f 109/2/6 106/2/6 121/2/6
f 112/2/6 113/2/6 122/2/6
f 106/1/6 112/1/6 122/1/6
f 113/1/6 101/1/6 123/1/6
f 122/2/6 113/2/6 123/2/6
f 106/1/6 122/1/6 124/1/6
f 121/2/6 106/2/6 124/2/6
f 122/1/6 123/1/6 124/1/6
f 120/2/6 121/2/6 124/2/6
f 124/1/6 123/1/6 125/1/6
f 118/2/6 120/2/6 126/2/6
f 120/2/6 124/2/6 126/2/6
f 124/2/6 125/2/6 126/2/6
f 126/2/6 125/2/6 127/2/6
f 125/1/6 123/1/6 128/1/6
f 123/1/6 101/1/6 128/1/6
f 128/1/6 101/1/6 129/1/6
f 129/1/6 101/1/6 130/1/6
f 127/2/6 125/2/6 131/2/6
f 125/1/6 128/1/6 132/1/6
f 131/2/6 125/2/6 132/2/6
f 128/2/6 129/2/6 133/2/6
f 132/1/6 128/1/6 133/1/6
f 131/1/6 132/1/6 133/1/6
f 129/1/6 130/1/6 134/1/6
f 133/2/6 129/2/6 134/2/6
f 118/2/6 126/2/6 135/2/6
f 126/1/6 127/1/6 136/1/6
f 135/2/6 126/2/6 136/2/6
f 131/1/6 133/1/6 137/1/6
f 133/1/6 134/1/6 137/1/6
f 134/1/6 130/1/6 138/1/6
f 137/1/6 134/1/6 138/1/6
f 131/1/6 137/1/6 139/1/6
f 127/2/6 131/2/6 139/2/6
f 137/2/6 138/2/6 140/2/6
f 139/1/6 137/1/6 140/1/6
f 136/1/6 127/1/6 141/1/6
f 135/1/6 136/1/6 141/1/6
f 127/2/6 139/2/6 142/2/6
f 141/1/6 127/1/6 142/1/6
f 139/2/6 140/2/6 142/2/6
f 135/1/6 141/1/6 143/1/6
f 143/1/6 141/1/6 144/1/6
f 135/1/6 143/1/6 145/1/6
f 143/2/6 144/2/6 145/2/6
f 144/1/6 141/1/6 146/1/6
f 145/2/6 144/2/6 146/2/6
f 142/2/6 140/2/6 147/2/6
f 141/2/6 142/2/6 147/2/6
f 147/2/6 140/2/6 148/2/6
f 141/2/6 147/2/6 149/2/6
f 149/2/6 147/2/6 150/2/6
f 146/1/6 141/1/6 151/1/6
f 145/1/6 146/1/6 151/1/6
f 151/1/6 141/1/6 152/1/6
f 150/2/6 147/2/6 153/2/6
f 147/1/6 148/1/6 154/1/6
f 153/2/6 147/2/6 154/2/6
f 153/1/6 154/1/6 155/1/6
f 154/1/6 148/1/6 155/1/6
f 148/2/6 140/2/6 156/2/6
f 155/1/6 148/1/6 156/1/6
f 149/1/6 150/1/6 157/1/6
f 150/2/6 153/2/6 157/2/6
f 153/1/6 155/1/6 158/1/6
f 157/2/6 153/2/6 158/2/6
f 145/1/6 151/1/6 159/1/6
f 151/2/6 152/2/6 159/2/6
f 152/1/6 141/1/6 160/1/6
f 159/2/6 152/2/6 160/2/6
f 149/1/6 157/1/6 161/1/6
f 141/2/6 149/2/6 161/2/6
f 157/1/6 158/1/6 161/1/6
f 161/1/6 158/1/6 162/1/6
f 158/1/6 155/1/6 163/1/6
f 162/1/6 158/1/6 163/1/6
f 155/2/6 156/2/6 164/2/6
f 163/1/6 155/1/6 164/1/6
f 145/1/6 159/1/6 165/1/6
f 135/1/6 145/1/6 165/1/6
f 159/1/6 160/1/6 165/1/6
f 160/1/6 141/1/6 166/1/6
f 165/1/6 160/1/6 166/1/6
f 141/2/6 161/2/6 166/2/6
f 161/2/6 162/2/6 166/2/6
f 164/2/6 156/2/6 167/2/6
f 140/2/6 138/2/6 167/2/6
f 156/2/6 140/2/6 167/2/6
f 163/2/6 164/2/6 167/2/6
f 167/2/6 138/2/6 168/2/6
f 166/2/6 162/2/6 169/2/6
f 165/2/6 166/2/6 169/2/6
f 162/1/6 163/1/6 169/1/6
f 163/2/6 167/2/6 170/2/6
f 169/1/6 163/1/6 170/1/6
f 165/2/6 169/2/6 171/2/6
f 169/2/6 170/2/6 171/2/6
f 171/2/6 170/2/6 172/2/6
f 171/1/6 172/1/6 173/1/6
f 172/2/6 170/2/6 173/2/6
f 167/1/6 168/1/6 174/1/6
f 173/2/6 170/2/6 174/2/6
f 170/2/6 167/2/6 174/2/6
f 165/2/6 171/2/6 175/2/6
f 175/2/6 171/2/6 176/2/6
f 173/1/6 174/1/6 177/1/6
f 177/1/6 174/1/6 178/1/6
f 175/1/6 176/1/6 179/1/6
f 179/1/6 176/1/6 180/1/6
f 173/1/6 177/1/6 181/1/6
f 177/2/6 178/2/6 182/2/6
f 181/1/6 177/1/6 182/1/6
f 175/1/6 179/1/6 183/1/6
f 179/2/6 180/2/6 183/2/6
f 180/1/6 176/1/6 184/1/6
f 183/2/6 180/2/6 184/2/6
f 171/1/6 173/1/6 185/1/6
f 176/2/6 171/2/6 185/2/6
f 173/1/6 181/1/6 185/1/6
f 185/1/6 181/1/6 186/1/6
f 183/1/6 184/1/6 187/1/6
f 165/2/6 175/2/6 187/2/6
f 175/1/6 183/1/6 187/1/6
f 184/1/6 176/1/6 188/1/6
f 187/1/6 184/1/6 188/1/6
f 185/2/6 186/2/6 188/2/6
f 176/2/6 185/2/6 188/2/6
f 182/2/6 178/2/6 189/2/6
f 181/2/6 182/2/6 189/2/6
f 178/1/6 174/1/6 190/1/6
f 189/2/6 178/2/6 190/2/6
f 165/2/6 187/2/6 191/2/6
f 187/2/6 188/2/6 191/2/6
f 191/2/6 188/2/6 192/2/6
f 186/1/6 181/1/6 193/1/6
f 181/2/6 189/2/6 193/2/6
f 189/1/6 190/1/6 194/1/6
f 193/2/6 189/2/6 194/2/6
f 190/1/6 174/1/6 195/1/6
f 194/1/6 190/1/6 195/1/6
f 193/1/6 194/1/6 195/1/6
f 174/1/6 168/1/6 195/1/6
f 186/1/6 193/1/6 196/1/6
f 192/2/6 188/2/6 196/2/6
f 193/1/6 195/1/6 196/1/6
f 188/2/6 186/2/6 196/2/6
f 196/1/6 195/1/6 197/1/6
f 191/1/6 192/1/6 198/1/6
f 192/2/6 196/2/6 199/2/6
f 198/1/6 192/1/6 199/1/6
f 196/2/6 197/2/6 199/2/6
f 198/2/6 199/2/6 200/2/6
f 200/2/6 199/2/6 201/2/6
f 199/2/6 197/2/6 202/2/6
f 201/2/6 199/2/6 202/2/6
f 203/2/6 204/2/6 207/2/6
f 207/2/6 204/2/6 208/2/6
f 205/2/6 206/2/6 209/2/6
f 209/2/6 206/2/6 210/2/6
